<svg xmlns="http://www.w3.org/2000/svg" id="Ebene_1" width="1000" height="1000"><defs><style>.cls-1{fill:#001048}</style></defs><path d="m192.91 581.85-2.26-35.19h3.38c11 22.93 22.28 36.26 43.71 36.26 16.07 0 28.76-8 28.76-22.93 0-14.13-9.31-19.73-30.17-30.39l-11-5.6c-13.82-6.93-31.02-16.26-31.02-39.73 0-25.33 21.15-40.53 48.79-40.53 11.28 0 27.64 2.4 38.63 7.46v29.33h-3.38c-7.9-19.73-19.74-29.86-37.51-29.86-14.95 0-24.53 8.27-24.53 20.8 0 16.26 14.95 22.93 22.84 26.93l10.72 5.33c19.18 9.6 38.63 18.13 38.63 42.93 0 26.39-22 43.19-54.14 43.19-14.38 0-31.02-3.2-41.45-8" class="cls-1"/><path d="M412.3 572.79c-4.51 6.4-14.66 17.06-29.89 17.06s-18.89-10.93-19.74-20.53c-11.28 12.53-28.48 20.53-44.56 20.53-19.18 0-32.71-11.2-32.71-29.33 0-19.46 15.51-34.93 49.35-43.99l26.23-6.93v-17.86c0-7.46 0-33.06-26.79-33.06-18.33 0-31.3 11.2-39.2 25.59l-5.64-2.13c5.64-17.06 25.1-38.39 57.53-38.39 28.48 0 43.15 17.86 43.15 44.52v67.99c0 8.8 0 17.6 8.46 17.6 4.23 0 7.61-2.4 9.87-4.53l3.95 3.47Zm-51.32-9.07v-47.19l-16.64 5.33c-11.84 3.73-30.46 9.33-30.46 30.66 0 14.93 9.02 22.13 20.59 22.13 9.87 0 19.74-5.33 26.51-10.93m135.35 3.73c-13.25 13.86-30.74 22.4-46.53 22.4-21.71 0-34.12-10.93-34.12-35.19v-95.98h-14.66v-6.4l3.95-1.6c16.36-6.67 26.23-18.4 36.66-40.53h3.38v36.79h49.35l-4.23 11.73h-45.12v92.78c0 14.93 7.33 22.66 21.15 22.66 10.15 0 19.18-5.6 25.94-10.93z" class="cls-1"/><path d="M610.82 572.79c-4.51 6.4-14.66 17.06-29.89 17.06s-18.89-10.93-19.74-20.53c-11.28 12.53-28.48 20.53-44.56 20.53-19.18 0-32.71-11.2-32.71-29.33 0-19.46 15.51-34.93 49.35-43.99l26.23-6.93v-17.86c0-7.46 0-33.06-26.79-33.06-18.33 0-31.3 11.2-39.2 25.59l-5.64-2.13c5.64-17.06 25.1-38.39 57.53-38.39 28.48 0 43.15 17.86 43.15 44.52v67.99c0 8.8 0 17.6 8.46 17.6 4.23 0 7.61-2.4 9.87-4.53l3.95 3.47Zm-51.32-9.07v-47.19l-16.64 5.33c-11.84 3.73-30.46 9.33-30.46 30.66 0 14.93 9.02 22.13 20.59 22.13 9.87 0 19.74-5.33 26.51-10.93" class="cls-1"/><path d="m695.14 445.88-6.77 27.73h-2.82c-6.77-5.33-14.95-7.46-20.59-7.46-6.77 0-12.97 2.93-20.02 11.46v79.72c0 17.06.85 26.13 12.41 26.13v3.2h-54.14v-3.2c11.56 0 12.41-9.07 12.41-26.13v-74.12c0-17.06-4.79-21.86-14.38-25.06v-3.2l41.45-10.66h2.26v24.53c11.84-15.2 24.82-25.06 38.92-25.06 3.38 0 7.33.53 11.28 2.13Zm114.21 126.91c-4.51 6.4-14.66 17.06-29.89 17.06s-18.89-10.93-19.74-20.53c-11.28 12.53-28.48 20.53-44.56 20.53-19.18 0-32.71-11.2-32.71-29.33 0-19.46 15.51-34.93 49.35-43.99l26.23-6.93v-17.86c0-7.46 0-33.06-26.79-33.06-18.33 0-31.3 11.2-39.2 25.59l-5.64-2.13c5.64-17.06 25.1-38.39 57.53-38.39 28.48 0 43.15 17.86 43.15 44.52v67.99c0 8.8 0 17.6 8.46 17.6 4.23 0 7.61-2.4 9.87-4.53l3.95 3.47Zm-51.33-9.07v-47.19l-16.64 5.33c-11.84 3.73-30.46 9.33-30.46 30.66 0 14.93 9.02 22.13 20.59 22.13 9.87 0 19.74-5.33 26.51-10.93m88.03 10.51c0 8.97-6.55 15.62-15.36 15.62s-15.42-6.65-15.42-15.62 6.55-15.56 15.42-15.56 15.36 6.65 15.36 15.56m-1.96 0c0-7.93-5.69-13.83-13.4-13.83s-13.46 5.9-13.46 13.83 5.75 13.89 13.46 13.89 13.4-5.9 13.4-13.89m-4.22 8.56v.69c-1.1.11-2.14.11-2.69.11-2.2 0-2.81-.75-6.12-7.75-.37-.81-.67-.98-1.47-.98h-.92v4.92c0 1.97.12 3.01 1.9 3.01v.69h-7.22v-.69c1.71 0 1.77-1.04 1.77-3.01v-11.05c0-1.97-.06-3.01-1.77-3.01v-.69h7.47c4.34 0 6.85 1.74 6.85 4.74 0 2.31-1.71 4.05-4.34 4.74.67.46 1.41 1.33 2.08 2.6 2.63 4.92 3.24 5.44 4.47 5.67Zm-11.2-9.14h1.77c2.45 0 3.67-.87 3.67-3.59s-1.41-3.82-3.86-3.82h-.8c-.49 0-.8.23-.8.81v6.6Z" class="cls-1"/></svg>